<svg xmlns="http://www.w3.org/2000/svg" viewBox="0 0 62 62" fill="none" role="img" aria-label="OpenFX">
  <g clip-path="url(#openfx-favicon-clip)">
    <path fill="#0392F1" d="M30.9985-.015625C13.8778-.015625 0 13.8629 0 30.9844 0 48.1059 13.8778 61.9844 30.9985 61.9844 48.1192 61.9844 62 48.1059 62 30.9844 62 13.8629 48.1222-.015625 30.9985-.015625ZM18.1946 36.9349C20.3127 35.7053 21.6559 33.6231 22.4546 31.2806 23.2534 28.9351 23.5525 26.1977 23.5017 23.4214 23.4269 19.1672 22.5264 14.5988 21.1114 10.8293 20.9738 10.4643 21.246 10.0784 21.6379 10.0784H45.6152C45.9683 10.0784 46.3153 10.1891 46.5965 10.4015 48.888 12.1426 50.8804 14.2548 52.4809 16.6511 52.6185 16.8606 52.4659 17.1388 52.2176 17.1388H29.1707C28.7339 17.1388 28.4048 17.5307 28.4766 17.9585L28.8236 20.0078C29.6703 25.0429 29.3412 29.8774 27.8723 33.8175 26.4124 37.7396 23.9803 40.1599 20.6986 40.7104 17.369 41.2698 13.815 40.4202 10.8205 38.0119 13.091 38.6491 15.6099 38.4337 18.1946 36.9349ZM21.5153 45.5629C27.0975 44.6235 30.6365 40.483 32.4823 35.5377 33.9661 31.5558 34.4508 27.146 34.0798 22.4879 34.0619 22.2546 34.2414 22.0571 34.4747 22.0571H54.7545C55.0446 22.0601 55.3049 22.2396 55.3976 22.5119 55.9959 24.2321 56.4148 26.0331 56.6361 27.8939 56.678 28.229 56.4088 28.5252 56.0707 28.5252H41.1967C40.7719 28.5252 40.4279 28.8692 40.4279 29.2941V30.7091C39.7877 40.3723 32.611 48.2854 23.0559 48.1986 19.3973 48.1657 16.0078 46.99 13.2346 45.0155 15.8493 45.9937 18.6583 46.0416 21.5153 45.5629ZM23.2145 53.117C34.4867 53.117 43.7874 44.6894 45.1665 33.7936 45.1934 33.5931 45.358 33.4436 45.5584 33.4436H56.1814C56.4596 33.4436 56.681 33.6859 56.6511 33.9641 55.1733 46.8254 44.2541 56.8057 31.0015 56.8057 25.2996 56.8057 20.0315 54.9599 15.7595 51.8276 18.0899 52.6622 20.5999 53.117 23.2145 53.117Z"/>
  </g>
  <defs>
    <clipPath id="openfx-favicon-clip">
      <rect width="62" height="62" fill="white"/>
    </clipPath>
  </defs>
</svg>
